<svg width="30" height="30" viewBox="0 0 30 30" fill="none" xmlns="http://www.w3.org/2000/svg">
<path d="M22.0168 11.4844V7.61719C22.0168 6.96973 21.4924 6.44531 20.845 6.44531H9.12622C8.47876 6.44531 7.95435 6.96973 7.95435 7.61719V11.4844H1.74341V29.4141H28.2278V11.4844H22.0168Z" fill="white"/>
<path d="M17.3293 22.0312H12.6418C11.9944 22.0312 11.47 22.5557 11.47 23.2031V29.4141H18.5012V23.2031C18.5012 22.5557 17.9768 22.0312 17.3293 22.0312Z" fill="#00984A"/>
<path d="M18.5012 4.10156C18.5012 5.00215 18.1625 5.82305 17.6065 6.44531H17.6059C16.9625 7.16426 16.0268 7.61719 14.9856 7.61719C13.9444 7.61719 13.0086 7.16426 12.3653 6.44531H12.3647C11.8086 5.82305 11.47 5.00215 11.47 4.10156C11.47 2.15977 13.0438 0.585938 14.9856 0.585938C16.9274 0.585938 18.5012 2.15977 18.5012 4.10156Z" fill="#00984A"/>
<path d="M15 24.9609C15.3234 24.9609 15.5859 24.6984 15.5859 24.375C15.5859 24.0516 15.3234 23.7891 15 23.7891C14.6766 23.7891 14.4141 24.0516 14.4141 24.375C14.4141 24.6984 14.6766 24.9609 15 24.9609Z" fill="#212121"/>
<path d="M29.4141 12.0703C29.7377 12.0703 30 11.8079 30 11.4844C30 11.1608 29.7377 10.8984 29.4141 10.8984C27.8195 10.8984 23.9942 10.8984 22.6172 10.8984V7.61719C22.6172 6.64793 21.8286 5.85938 20.8594 5.85938H18.7054C18.9639 5.31445 19.1016 4.71539 19.1016 4.10156C19.1016 1.83996 17.2616 0 15 0C12.7384 0 10.8984 1.83996 10.8984 4.10156C10.8984 4.71539 11.0361 5.31445 11.2946 5.85938H9.14062C8.17137 5.85938 7.38281 6.64793 7.38281 7.61719V10.8984C6.00164 10.8984 2.16797 10.8984 0.585938 10.8984C0.262324 10.8984 0 11.1608 0 11.4844C0 11.8079 0.262324 12.0703 0.585938 12.0703H1.17188V19.1016H0.585938C0.262324 19.1016 0 19.3639 0 19.6875C0 20.0111 0.262324 20.2734 0.585938 20.2734H1.17188V29.4141C1.17188 29.7376 1.4342 30 1.75781 30C11.5361 30 18.3565 30 28.2422 30C28.5658 30 28.8281 29.7376 28.8281 29.4141V20.2734H29.4141C29.7377 20.2734 30 20.0111 30 19.6875C30 19.3639 29.7377 19.1016 29.4141 19.1016H28.8281V12.0703H29.4141ZM15 1.17188C16.6154 1.17188 17.9297 2.48613 17.9297 4.10156C17.9297 4.81635 17.6697 5.50395 17.1973 6.03984C17.1927 6.04471 17.1882 6.04957 17.1837 6.05455C16.6283 6.67529 15.8323 7.03125 15 7.03125C14.1677 7.03125 13.3717 6.67529 12.8163 6.05455C12.8118 6.04957 12.8073 6.04471 12.8027 6.03984C12.3303 5.50395 12.0703 4.81635 12.0703 4.10156C12.0703 2.48613 13.3846 1.17188 15 1.17188ZM8.55469 7.61719C8.55469 7.2941 8.81754 7.03125 9.14062 7.03125H12.1307C12.8944 7.77873 13.9253 8.20312 15 8.20312C16.0747 8.20312 17.1056 7.77873 17.8693 7.03125H20.8594C21.1825 7.03125 21.4453 7.2941 21.4453 7.61719V11.4844V28.8281H19.1016V23.2031C19.1016 22.2339 18.313 21.4453 17.3438 21.4453H12.6562C11.687 21.4453 10.8984 22.2339 10.8984 23.2031V28.8281H8.55469V11.4844V7.61719ZM2.34375 12.0703H7.38281V19.1016H2.34375V12.0703ZM2.34375 20.2734H7.38281V28.8281H2.34375V20.2734ZM12.0703 23.2031C12.0703 22.88 12.3332 22.6172 12.6562 22.6172H17.3438C17.6668 22.6172 17.9297 22.88 17.9297 23.2031V28.8281H15.5859V26.7188C15.5859 26.3952 15.3236 26.1328 15 26.1328C14.6764 26.1328 14.4141 26.3952 14.4141 26.7188V28.8281H12.0703V23.2031ZM27.6562 28.8281H22.6172V20.2734H27.6562V28.8281ZM22.6172 19.1016V12.0703H27.6562V19.1016H22.6172Z" fill="#212121"/>
<path d="M24.375 14.4141H25.8984C26.2221 14.4141 26.4844 14.1517 26.4844 13.8281C26.4844 13.5046 26.2221 13.2422 25.8984 13.2422H24.375C24.0514 13.2422 23.7891 13.5046 23.7891 13.8281C23.7891 14.1517 24.0514 14.4141 24.375 14.4141Z" fill="#212121"/>
<path d="M25.8984 16.7578H24.375C24.0514 16.7578 23.7891 17.0202 23.7891 17.3438C23.7891 17.6673 24.0514 17.9297 24.375 17.9297H25.8984C26.2221 17.9297 26.4844 17.6673 26.4844 17.3438C26.4844 17.0202 26.2221 16.7578 25.8984 16.7578Z" fill="#212121"/>
<path d="M24.375 22.6172H25.8984C26.2221 22.6172 26.4844 22.3548 26.4844 22.0312C26.4844 21.7077 26.2221 21.4453 25.8984 21.4453H24.375C24.0514 21.4453 23.7891 21.7077 23.7891 22.0312C23.7891 22.3548 24.0514 22.6172 24.375 22.6172Z" fill="#212121"/>
<path d="M25.8984 24.9609H24.375C24.0514 24.9609 23.7891 25.2233 23.7891 25.5469C23.7891 25.8704 24.0514 26.1328 24.375 26.1328H25.8984C26.2221 26.1328 26.4844 25.8704 26.4844 25.5469C26.4844 25.2233 26.2221 24.9609 25.8984 24.9609Z" fill="#212121"/>
<path d="M5.625 24.9609H4.10156C3.77795 24.9609 3.51562 25.2233 3.51562 25.5469C3.51562 25.8704 3.77795 26.1328 4.10156 26.1328H5.625C5.94861 26.1328 6.21094 25.8704 6.21094 25.5469C6.21094 25.2233 5.94861 24.9609 5.625 24.9609Z" fill="#212121"/>
<path d="M5.625 21.4453H4.10156C3.77795 21.4453 3.51562 21.7077 3.51562 22.0312C3.51562 22.3548 3.77795 22.6172 4.10156 22.6172H5.625C5.94861 22.6172 6.21094 22.3548 6.21094 22.0312C6.21094 21.7077 5.94861 21.4453 5.625 21.4453Z" fill="#212121"/>
<path d="M5.625 16.7578H4.10156C3.77795 16.7578 3.51562 17.0202 3.51562 17.3438C3.51562 17.6673 3.77795 17.9297 4.10156 17.9297H5.625C5.94861 17.9297 6.21094 17.6673 6.21094 17.3438C6.21094 17.0202 5.94861 16.7578 5.625 16.7578Z" fill="#212121"/>
<path d="M4.10156 14.4141H5.625C5.94861 14.4141 6.21094 14.1517 6.21094 13.8281C6.21094 13.5046 5.94861 13.2422 5.625 13.2422H4.10156C3.77795 13.2422 3.51562 13.5046 3.51562 13.8281C3.51562 14.1517 3.77795 14.4141 4.10156 14.4141Z" fill="#212121"/>
<path d="M10.3125 12.0703H11.4844C11.808 12.0703 12.0703 11.8079 12.0703 11.4844C12.0703 11.1608 11.808 10.8984 11.4844 10.8984H10.3125C9.98889 10.8984 9.72656 11.1608 9.72656 11.4844C9.72656 11.8079 9.98889 12.0703 10.3125 12.0703Z" fill="#212121"/>
<path d="M13.8281 12.0703H16.1719C16.4955 12.0703 16.7578 11.8079 16.7578 11.4844C16.7578 11.1608 16.4955 10.8984 16.1719 10.8984H13.8281C13.5045 10.8984 13.2422 11.1608 13.2422 11.4844C13.2422 11.8079 13.5045 12.0703 13.8281 12.0703Z" fill="#212121"/>
<path d="M18.5156 12.0703H19.6875C20.0111 12.0703 20.2734 11.8079 20.2734 11.4844C20.2734 11.1608 20.0111 10.8984 19.6875 10.8984H18.5156C18.192 10.8984 17.9297 11.1608 17.9297 11.4844C17.9297 11.8079 18.192 12.0703 18.5156 12.0703Z" fill="#212121"/>
<path d="M10.3125 15.5859H11.4844C11.808 15.5859 12.0703 15.3236 12.0703 15C12.0703 14.6764 11.808 14.4141 11.4844 14.4141H10.3125C9.98889 14.4141 9.72656 14.6764 9.72656 15C9.72656 15.3236 9.98889 15.5859 10.3125 15.5859Z" fill="#212121"/>
<path d="M13.8281 15.5859H16.1719C16.4955 15.5859 16.7578 15.3236 16.7578 15C16.7578 14.6764 16.4955 14.4141 16.1719 14.4141H13.8281C13.5045 14.4141 13.2422 14.6764 13.2422 15C13.2422 15.3236 13.5045 15.5859 13.8281 15.5859Z" fill="#212121"/>
<path d="M18.5156 15.5859H19.6875C20.0111 15.5859 20.2734 15.3236 20.2734 15C20.2734 14.6764 20.0111 14.4141 19.6875 14.4141H18.5156C18.192 14.4141 17.9297 14.6764 17.9297 15C17.9297 15.3236 18.192 15.5859 18.5156 15.5859Z" fill="#212121"/>
<path d="M10.3125 19.1016H11.4844C11.808 19.1016 12.0703 18.8392 12.0703 18.5156C12.0703 18.1921 11.808 17.9297 11.4844 17.9297H10.3125C9.98889 17.9297 9.72656 18.1921 9.72656 18.5156C9.72656 18.8392 9.98889 19.1016 10.3125 19.1016Z" fill="#212121"/>
<path d="M13.8281 19.1016H16.1719C16.4955 19.1016 16.7578 18.8392 16.7578 18.5156C16.7578 18.1921 16.4955 17.9297 16.1719 17.9297H13.8281C13.5045 17.9297 13.2422 18.1921 13.2422 18.5156C13.2422 18.8392 13.5045 19.1016 13.8281 19.1016Z" fill="#212121"/>
<path d="M18.5156 19.1016H19.6875C20.0111 19.1016 20.2734 18.8392 20.2734 18.5156C20.2734 18.1921 20.0111 17.9297 19.6875 17.9297H18.5156C18.192 17.9297 17.9297 18.1921 17.9297 18.5156C17.9297 18.8392 18.192 19.1016 18.5156 19.1016Z" fill="#212121"/>
<path d="M13.8281 4.6875H14.4141V5.27344C14.4141 5.59699 14.6764 5.85938 15 5.85938C15.3236 5.85938 15.5859 5.59699 15.5859 5.27344V4.6875H16.1719C16.4955 4.6875 16.7578 4.42512 16.7578 4.10156C16.7578 3.77801 16.4955 3.51562 16.1719 3.51562H15.5859V2.92969C15.5859 2.60613 15.3236 2.34375 15 2.34375C14.6764 2.34375 14.4141 2.60613 14.4141 2.92969V3.51562H13.8281C13.5045 3.51562 13.2422 3.77801 13.2422 4.10156C13.2422 4.42512 13.5045 4.6875 13.8281 4.6875Z" fill="white"/>
</svg>
